# xmcd
#
# Track frame offsets:
#	150
#	11762
#	23573
#	37305
#	50503
#	68326
#	79580
#	89613
#	101531
#	114214
#	124692
#	140245
#	152194
#	161374
#	173943
#	186783
#	196050
#	205607
#
# Disc length: 2897 seconds
# Revision: 1
# Processed by: cddbd v1.5.2PL0 Copyright (c) Steve Scherf et al.
# Submitted via: dBpowerAMP V12.0
#
DISCID=e80b4f12
DTITLE=Various Artist - Ultimate... Country, Disc 4
DYEAR=2015
DGENRE=Country
TTITLE0=Jim Reeves - Welcome to My World
TTITLE1=Skeeter Davis - The End of the World [Remastered]
TTITLE2=Mac Davis - Baby Don't Get Hooked on Me
TTITLE3=Lynn Anderson - (I Never Promised You A) Rose Garden
TTITLE4=Mart Robbins - Big Iron
TTITLE5=Don Gibson - Oh, Lonesome Me
TTITLE6=George Hamilton IV - Abilene
TTITLE7=Bobby Bare - The Streets of Baltimore
TTITLE8=George Jones - She Thinks I Still Care
TTITLE9=Connie Smith - Once a Day
TTITLE10=B.J. Thomas - Whatever Happened to Old Fashioned Love
TTITLE11=Eddy Arnold - Make the World Go Away
TTITLE12=Charley Pride - Kiss an Angel Good Mornin'
TTITLE13=Porter Wagoner - A Satisfied Mind
TTITLE14=The Browns - The Three Bells
TTITLE15=Lester Flatt and Earl Scruggs with The Foggy Mountain Boys - The Ballad of Jed Clampett
TTITLE16=Waylon Jennings - Theme from "The Dukes of Hazzard" (Good Ol' Boys)
TTITLE17=Roy Rogers and The Sons of the Pioneers - Stampede
EXTD=
EXTT0=
EXTT1=
EXTT2=
EXTT3=
EXTT4=
EXTT5=
EXTT6=
EXTT7=
EXTT8=
EXTT9=
EXTT10=
EXTT11=
EXTT12=
EXTT13=
EXTT14=
EXTT15=
EXTT16=
EXTT17=
PLAYORDER=
